HIERARCHY
ROOT hip
{
	OFFSET 0.000000 0.000000 0.000000
	CHANNELS 6 Xposition Yposition Zposition Xrotation Zrotation Yrotation 
	JOINT abdomen
	{
		OFFSET 0.000000 3.422050 0.000000
		CHANNELS 3 Xrotation Zrotation Yrotation 
		JOINT chest
		{
			OFFSET 0.000000 8.486693 -0.684411
			CHANNELS 3 Xrotation Zrotation Yrotation 
			JOINT neck
			{
				OFFSET 0.000000 10.266162 -0.273764
				CHANNELS 3 Xrotation Zrotation Yrotation 
				JOINT head
				{
					OFFSET 0.000000 3.148285 0.000000
					CHANNELS 3 Xrotation Zrotation Yrotation 
					End Site
					{
						OFFSET 0.000000 3.148289 0.000000
					}
				}
			}
			JOINT lCollar
			{
				OFFSET 3.422053 6.707223 -0.821293
				CHANNELS 3 Yrotation Zrotation Xrotation 
				JOINT lShldr
				{
					OFFSET 3.285171 0.000000 0.000000
					CHANNELS 3 Zrotation Yrotation Xrotation 
					JOINT lForeArm
					{
						OFFSET 10.129278 0.000000 0.000000
						CHANNELS 3 Yrotation Zrotation Xrotation 
						JOINT lHand
						{
							OFFSET 8.486692 0.000000 0.000000
							CHANNELS 3 Zrotation Yrotation Xrotation 
							End Site
							{
								OFFSET 4.106464 0.000000 0.000000
							}
						}
					}
				}
			}
			JOINT rCollar
			{
				OFFSET -3.558935 6.707223 -0.821293
				CHANNELS 3 Yrotation Zrotation Xrotation 
				JOINT rShldr
				{
					OFFSET -3.148289 0.000000 0.000000
					CHANNELS 3 Zrotation Yrotation Xrotation 
					JOINT rForeArm
					{
						OFFSET -10.266159 0.000000 0.000000
						CHANNELS 3 Yrotation Zrotation Xrotation 
						JOINT rHand
						{
							OFFSET -8.349810 0.000000 0.000000
							CHANNELS 3 Zrotation Yrotation Xrotation 
							End Site
							{
								OFFSET -4.106464 0.000000 0.000000
							}
						}
					}
				}
			}
		}
	}
	JOINT lThigh
	{
		OFFSET 5.338403 -1.642589 1.368821
		CHANNELS 3 Xrotation Zrotation Yrotation 
		JOINT lShin
		{
			OFFSET -2.053232 -20.121670 0.000000
			CHANNELS 3 Xrotation Zrotation Yrotation 
			JOINT lFoot
			{
				OFFSET 0.000000 -19.300380 -1.231939
				CHANNELS 3 Xrotation Yrotation Zrotation 
				End Site
				{
					OFFSET 0.000000 -2.463878 4.653993
				}
			}
		}
	}
	JOINT rThigh
	{
		OFFSET -5.338403 -1.642589 1.368821
		CHANNELS 3 Xrotation Zrotation Yrotation 
		JOINT rShin
		{
			OFFSET 2.053232 -20.121670 0.000000
			CHANNELS 3 Xrotation Zrotation Yrotation 
			JOINT rFoot
			{
				OFFSET 0.000000 -19.300380 -1.231939
				CHANNELS 3 Xrotation Yrotation Zrotation 
				End Site
				{
					OFFSET 0.000000 -2.463878 4.653993
				}
			}
		}
	}
}
MOTION
Frames: 6
Frame Time: 0.049868
5.865489 20.810020 27.423119 0.011022 -0.013346 -169.104675 1.769395 5.853312 -0.439326 14.477599 -8.738902 -1.339570 10.181525 17.159277 7.123672 -36.337635 6.790926 -0.030914 18.013569 -35.943867 -59.503201 -51.272526 23.833679 27.830582 -6.125998 56.762199 -7.076519 -9.529379 -3.172919 -29.346676 19.545914 6.771583 -1.037253 64.937157 30.038328 0.190657 48.908119 2.116702 -2.248036 0.740234 -10.527051 30.527721 -22.121630 9.867480 -4.012496 106.992775 6.256382 0.452274 60.529976 3.473952 8.297202 -19.489153 -2.802061 -1.672314 112.696465 -6.585065 -1.890140 61.259045 -8.991311 -2.510541 
6.170269 20.693478 27.505220 0.011022 -0.013346 -169.104675 1.814453 6.834041 -0.354721 14.549886 -8.660558 -1.342789 10.259548 18.065639 6.127378 -36.314568 7.025049 -0.030566 18.083303 -36.873726 -59.463867 -51.097237 23.894817 27.901901 -3.270732 55.081253 -9.613262 -10.484058 -3.015189 -29.618273 19.044096 8.288187 2.413766 65.945808 29.668676 0.808911 50.224316 2.546541 -2.293158 -0.377377 -12.387423 36.103634 -22.816721 10.340621 -4.634724 106.992775 6.256382 0.452274 60.656532 2.817433 8.767778 -20.106689 -2.272914 -2.232438 113.311493 -6.603676 -1.958437 61.388321 -9.586330 -2.078247 
6.475049 20.576933 27.587322 0.011022 -0.013346 -169.104675 1.861061 7.814482 -0.269169 14.622149 -8.582210 -1.345907 10.321285 18.972771 5.127519 -36.291485 7.259149 -0.030123 18.154692 -37.803337 -59.422604 -50.921776 23.955759 27.973469 -0.659696 53.335197 -11.902891 -11.439113 -2.862036 -29.892351 18.453279 9.760990 5.866373 66.945900 29.289757 1.417207 51.540730 2.975042 -2.348144 -1.094812 -14.420977 41.531284 -23.517920 10.806165 -5.263566 106.992775 6.256382 0.452274 60.788376 2.162074 9.239493 -20.729025 -1.749973 -2.797923 113.926521 -6.621559 -2.026927 61.522385 -10.180296 -1.643861 
6.779828 20.460388 27.669424 0.011022 -0.013346 -169.104675 1.909250 8.794496 -0.182629 14.694397 -8.503861 -1.348925 10.366499 19.880144 4.123814 -36.268391 7.493223 -0.029585 18.227844 -38.732628 -59.379391 -50.746162 24.016500 28.045277 1.731411 51.534664 -13.969677 -12.394389 -2.713526 -30.168806 17.777302 11.182328 9.317150 67.937271 28.901829 2.015382 52.857166 3.401859 -2.412951 -2.018871 -16.383533 47.051060 -24.225138 11.263915 -5.898932 106.992775 6.256382 0.452274 60.925549 1.507993 9.712424 -21.356108 -1.233422 -3.368704 114.541496 -6.638705 -2.095600 61.661247 -10.773116 -1.207319 
7.084608 20.343843 27.751526 0.011022 -0.013346 -169.104675 1.959049 9.773927 -0.095055 14.766620 -8.425508 -1.351842 10.394955 20.787228 3.115970 -36.245289 7.727270 -0.028952 18.302845 -39.661427 -59.334030 -50.570385 24.077042 28.117317 4.925985 49.999798 -16.851669 -13.349736 -2.569721 -30.447521 17.704838 12.748387 12.689141 68.919792 28.505146 2.603309 54.173355 3.826643 -2.487517 -3.143961 -18.245996 52.647274 -24.938267 11.713669 -6.540715 106.992775 6.256382 0.452274 61.068020 0.855300 10.186635 -21.987865 -0.723444 -3.944705 115.156387 -6.655116 -2.164442 61.804947 -11.364707 -0.768557 
7.389388 20.227299 27.833630 0.011022 -0.013346 -169.104675 2.010491 10.752633 -0.006403 14.838823 -8.347157 -1.354658 10.406405 21.693478 2.103685 -36.222179 7.961286 -0.028223 18.379801 -40.589638 -59.286507 -50.394436 24.137377 28.189594 7.902942 48.367443 -19.512564 -14.304985 -2.430676 -30.728359 17.536520 14.310792 16.092533 69.893356 28.099977 3.180872 55.489056 4.249052 -2.571769 -3.851342 -20.276369 58.051922 -25.657215 12.155247 -7.188812 106.992775 6.256382 0.452274 61.215805 0.204113 10.662199 -22.624235 -0.220217 -4.525851 115.771187 -6.670789 -2.233442 61.953533 -11.954979 -0.327507 
